<svg width="48" height="48" viewBox="0 0 48 48" role="img" aria-label="知识库" xmlns="http://www.w3.org/2000/svg">
  <defs>
    <linearGradient id="kb-logo-bg" x1="10" y1="7" x2="38" y2="41" gradientUnits="userSpaceOnUse">
      <stop stop-color="#ECFEFF"/>
      <stop offset="1" stop-color="#D1FAE5"/>
    </linearGradient>
  </defs>
  <rect x="4" y="4" width="40" height="40" rx="10" fill="url(#kb-logo-bg)"/>
  <g transform="translate(10 9) scale(1.25)">
    <path fill="#0F766E" d="M18 4h-5v8l-2.5-2.25L8 12V4H6v16h6.08c.1.71.31 1.38.61 2H6c-1.11 0-2-.89-2-2V4a2 2 0 0 1 2-2h12a2 2 0 0 1 2 2v8.08c-.33-.05-.66-.08-1-.08s-.67.03-1 .08zm5.8 16.4c.1 0 .1.1 0 .2l-1 1.7c-.1.1-.2.1-.3.1l-1.2-.4c-.3.2-.5.3-.8.5l-.2 1.3c0 .1-.1.2-.2.2h-2c-.1 0-.2-.1-.3-.2l-.2-1.3c-.3-.1-.6-.3-.8-.5l-1.2.5c-.1 0-.2 0-.3-.1l-1-1.7c-.1-.1 0-.2.1-.3l1.1-.8v-1l-1.1-.8c-.1-.1-.1-.2-.1-.3l1-1.7c.1-.1.2-.1.3-.1l1.2.5c.3-.2.5-.3.8-.5l.2-1.3c0-.1.1-.2.3-.2h2c.1 0 .2.1.2.2l.2 1.3c.3.1.6.3.9.5l1.2-.5c.1 0 .3 0 .3.1l1 1.7c.1.1 0 .2-.1.3l-1.1.8v1zM20.5 19c0-.8-.7-1.5-1.5-1.5s-1.5.7-1.5 1.5s.7 1.5 1.5 1.5s1.5-.7 1.5-1.5"/>
  </g>
</svg>
