<?xml version="1.0" standalone="no"?><!DOCTYPE svg PUBLIC "-//W3C//DTD SVG 1.1//EN" "http://www.w3.org/Graphics/SVG/1.1/DTD/svg11.dtd"><svg t="1753167505762" class="icon" viewBox="0 0 1024 1024" version="1.1" xmlns="http://www.w3.org/2000/svg" p-id="15744" xmlns:xlink="http://www.w3.org/1999/xlink" width="200" height="200"><path d="M862.208 809.984c8.192 8.192 8.192 21.504 0 30.208-8.192 8.192-21.504 8.192-30.208 0L701.44 709.12c-8.192-8.192-8.192-21.504 0.512-29.696 8.704-8.192 22.016-8.192 30.208 0l130.048 130.56zM804.352 73.216c13.824 0 27.648 1.024 40.96 4.096 13.824 2.56 27.136 6.656 39.936 12.288 17.92 7.68 26.112 28.672 18.432 46.592-1.536 4.096-4.096 7.68-7.168 11.264l-80.896 80.896 4.608 16.384 4.096 16.384 16.896 4.608 16.384 4.096c26.624-27.136 53.76-53.76 80.896-80.896 13.824-13.824 36.352-13.824 50.688 0 4.096 4.096 7.168 9.216 8.704 14.848 4.608 11.776 8.704 23.552 10.752 35.84v0.512c2.56 13.824 4.096 27.648 4.096 41.472 0 55.296-22.016 108.032-60.928 146.944-38.912 38.912-91.648 60.928-146.944 60.928h-12.288l-39.936 38.912 216.576 216.576 1.536 2.048c55.808 57.344 54.784 148.992-1.536 205.312l-0.512 0.512c-27.136 27.136-64.512 42.496-102.912 42.496-38.912 0-76.288-15.36-103.424-43.008l-217.088-217.6L323.584 957.44c-37.376 40.96-97.28 53.248-147.968 30.72-17.408-7.168-33.28-17.92-46.592-31.744-13.312-13.312-24.064-29.184-31.232-46.08-22.528-50.688-10.24-110.08 30.72-147.968v-0.512l246.784-247.296-90.112-90.624L204.8 400.384c-10.24-3.072-18.432-10.24-22.528-19.968L104.96 199.68c-7.168-13.824-4.608-30.72 6.656-41.472l32.256-32.256 31.744-31.744c10.24-10.24 25.6-13.312 38.912-7.68l182.784 77.824c9.728 4.096 17.408 12.288 19.968 22.528l23.552 80.384L531.968 358.4l65.024-64.512c0-4.608-0.512-8.704-0.512-12.288 0-55.296 21.504-108.544 60.928-147.456 38.912-38.912 91.648-60.928 146.944-60.928zM702.464 578.56l-106.496 106.496 216.576 216.576c29.184 29.184 76.8 29.696 106.496 0h0.512c28.16-29.184 28.672-75.264 1.024-104.96L702.464 578.56zM425.472 464.384L481.28 409.088l-96.768-97.28c-4.608-5.12-8.192-11.264-9.728-17.92l-20.992-71.168-145.408-61.44-14.848 14.848-14.848 15.36L240.64 336.896 313.856 358.4c5.632 1.536 11.264 4.608 15.36 9.216l96.256 96.768z m373.76-320c-73.728 3.072-132.096 63.488-132.096 137.216h0.512v9.728l1.024 8.192c2.56 11.776-1.024 23.552-9.728 32.256l-480.256 480.256c-19.456 17.92-25.6 46.08-15.872 70.656 4.096 8.704 9.728 16.896 16.384 23.552 7.168 6.656 15.36 12.288 24.064 16.384 24.064 10.24 52.224 4.096 70.144-15.36l246.272-246.272 1.024-1.024 156.16-157.184 1.024-1.536 75.264-74.752c7.68-8.192 18.944-12.288 30.208-10.24 3.584 0.512 7.168 1.024 10.752 1.024 3.584 0.512 6.656 0.512 10.24 0.512 36.352 0 71.168-14.336 96.768-39.936v-0.512c24.576-24.576 38.912-57.344 39.936-92.16-15.36 15.872-30.72 30.72-46.08 46.592-9.216 9.728-23.04 14.336-35.84 10.752l-35.84-9.728-36.352-9.728c-12.288-3.072-22.016-12.8-25.088-25.088l-9.728-36.352L742.4 225.28c-3.072-12.288 0.512-25.088 9.216-33.792l47.616-47.104z" fill="#FC8F01" p-id="15745"></path><path d="M792.064 752.64c8.192 8.192 8.192 21.504 0 30.208-8.192 8.192-21.504 8.192-30.208 0l-130.56-130.56c-8.192-8.192-8.192-21.504 0.512-29.696 8.704-8.192 22.016-8.192 30.208 0l130.048 130.048zM734.208 15.36c13.824 0 27.648 1.024 40.96 4.096 13.824 2.56 27.136 6.656 39.936 12.288 17.92 7.68 26.112 28.672 18.432 46.592-1.536 4.096-4.096 7.68-7.168 11.264l-80.896 80.896 4.608 16.384 4.096 16.384 16.896 4.608 16.384 4.096c26.624-27.136 53.76-53.76 80.896-80.896 13.824-13.824 36.352-13.824 50.688 0 4.096 4.096 7.168 9.216 8.704 14.848 4.608 11.776 8.704 23.552 10.752 35.84v0.512c2.56 13.824 4.096 27.648 4.096 41.472 0 55.296-22.016 108.032-60.928 146.944-38.912 38.912-91.648 60.928-146.944 60.928H721.92l-39.936 38.912 216.576 216.576 1.536 2.048c55.808 57.344 54.784 148.992-1.536 205.312l-0.512 0.512c-27.136 27.136-64.512 42.496-102.912 42.496-38.912 0-76.288-15.36-103.424-43.008l-217.088-217.6-221.696 222.208c-37.376 40.96-97.28 53.248-147.968 30.72-17.408-7.168-33.28-17.92-46.592-31.744-13.312-13.312-24.064-29.184-31.232-46.08-22.528-50.688-10.24-110.08 30.72-147.968v-0.512l246.784-247.296L215.04 366.592l-80.384-24.064c-10.24-3.072-18.432-10.24-22.528-19.968L34.816 142.336c-7.168-13.824-4.608-30.72 6.656-41.472l32.256-32.256 31.744-31.744c10.24-10.24 25.6-13.312 38.912-7.68L327.168 107.52c9.728 4.096 17.408 12.288 19.968 22.528l23.552 80.384 90.624 90.112 65.024-64.512c0-4.608-0.512-8.704-0.512-12.288 0-55.296 21.504-108.544 60.928-147.456 39.424-38.912 92.16-60.928 147.456-60.928z m-101.888 505.856l-106.496 106.496 216.576 216.576c29.184 29.184 76.8 29.696 106.496 0h0.512c28.16-29.184 28.672-75.264 1.024-104.96l-218.112-218.112zM355.328 407.04l55.808-55.808-96.768-97.28c-4.608-5.12-8.192-11.264-9.728-17.92l-20.992-71.168L138.24 104.448l-14.848 14.848-14.848 15.36 61.952 145.408 73.216 21.504c5.632 1.536 11.264 4.608 15.36 9.216l96.256 96.256z m373.76-320.512c-73.728 3.072-132.096 63.488-132.096 137.216h0.512v9.728l1.024 8.192c2.56 11.776-1.024 23.552-9.728 32.256l-480.256 480.256c-19.456 17.92-25.6 46.08-15.872 70.656 4.096 8.704 9.728 16.896 16.384 23.552 7.168 6.656 15.36 12.288 24.064 16.384 24.064 10.24 52.224 4.096 70.144-15.36l246.272-246.272 1.024-1.024L606.72 445.44l1.024-1.536 75.264-74.752c7.68-8.192 18.944-12.288 30.208-10.24 3.584 0.512 7.168 1.024 10.752 1.024 3.584 0.512 6.656 0.512 10.24 0.512 36.352 0 71.168-14.336 96.768-39.936v-0.512c24.576-24.576 38.912-57.344 39.936-92.16-15.36 15.872-30.72 30.72-46.08 46.592-9.216 9.728-23.04 14.336-35.84 10.752l-35.84-9.728-36.352-9.728c-12.288-3.072-22.016-12.8-25.088-25.088l-9.728-36.352-9.728-36.352c-3.072-12.288 0.512-25.088 9.216-33.792l47.616-47.616z" fill="#0044C1" p-id="15746"></path></svg>