<svg xmlns="http://www.w3.org/2000/svg" viewBox="0 0 32 32">
  <defs>
    <linearGradient id="bg" x1="6" y1="4" x2="26" y2="28" gradientUnits="userSpaceOnUse">
      <stop stop-color="#ecfeff"/>
      <stop offset="1" stop-color="#a7f3d0"/>
    </linearGradient>
  </defs>
  <rect width="32" height="32" rx="9" fill="url(#bg)"/>
  <path fill="#0f766e" d="M16 10.1c-1.5-1.25-3.35-1.85-5.55-1.8A2.45 2.45 0 0 0 8 10.75v10.1c0 .7.58 1.24 1.28 1.17 2.2-.23 4.07.2 5.62 1.31.66.47 1.54.47 2.2 0 1.55-1.1 3.42-1.54 5.62-1.31.7.07 1.28-.47 1.28-1.17v-10.1a2.45 2.45 0 0 0-2.45-2.45c-2.2-.05-4.05.55-5.55 1.8m-1.15 10.75c-1.28-.63-2.8-.9-4.57-.79V10.8c1.8-.08 3.32.35 4.57 1.28zm6.87-.79c-1.77-.11-3.29.16-4.57.79v-8.77c1.25-.93 2.77-1.36 4.57-1.28z"/>
  <path fill="#14b8a6" d="M11.45 13.45c.95.03 1.75.2 2.4.52v1.35a6.1 6.1 0 0 0-2.4-.5zm0 2.85c.95.03 1.75.2 2.4.52v1.35a6.1 6.1 0 0 0-2.4-.5zm9.1-2.85v1.37a6.1 6.1 0 0 0-2.4.5v-1.35c.65-.32 1.45-.5 2.4-.52zm0 2.85v1.37a6.1 6.1 0 0 0-2.4.5v-1.35c.65-.32 1.45-.5 2.4-.52z"/>
</svg>
